<svg version="1.1" id="Layer_1" xmlns="http://www.w3.org/2000/svg" xmlns:xlink="http://www.w3.org/1999/xlink" x="0px" y="0px"
	 width="100%" viewBox="0 0 500 500" enable-background="new 0 0 500 500" xml:space="preserve">
<path fill="#FFFFFF" opacity="1.000000" stroke="none" 
	d="
M244.000000,501.000000 
	C164.000015,501.000000 84.499992,500.971802 5.000207,501.096100 
	C1.575955,501.101440 0.903036,500.423828 0.905301,497.000000 
	C1.013779,333.000092 1.013772,169.000122 0.905334,5.000238 
	C0.903070,1.576920 1.575819,0.903022 4.999885,0.905287 
	C168.999771,1.013774 332.999725,1.013761 496.999634,0.905353 
	C500.422668,0.903090 501.096985,1.575444 501.094727,4.999765 
	C500.986206,168.999649 500.986237,332.999603 501.094604,496.999512 
	C501.096893,500.422272 500.425446,501.100983 497.000275,501.095978 
	C412.833649,500.973297 328.666809,501.000000 244.000000,501.000000 
z"/>
<path fill="#0A0A0A" opacity="1.000000" stroke="none" 
	d="
M126.551598,198.108398 
	C127.122162,200.843063 129.212250,200.631317 130.929871,200.998672 
	C136.435791,202.176224 141.867508,203.589462 147.104980,205.702744 
	C149.044144,206.485199 151.514725,207.351974 150.803665,209.699112 
	C150.094696,212.039368 147.488007,211.223785 145.643158,210.738983 
	C139.398849,209.098114 133.201294,207.279587 126.959084,205.630371 
	C124.068558,204.866699 121.111816,204.686630 117.977440,205.403809 
	C118.400780,208.102219 120.602295,207.628494 122.151031,207.884933 
	C130.174133,209.213470 138.094635,210.929199 145.647903,214.004044 
	C147.115234,214.601395 149.678268,214.589417 148.985291,217.340683 
	C148.206802,220.431488 145.749756,219.030960 144.069962,218.727829 
	C137.553009,217.551773 131.431107,214.732269 124.409157,214.030334 
	C121.800438,215.514755 119.528214,213.751450 117.470383,214.383774 
	C119.267227,215.234055 121.892632,214.185165 123.791855,216.451050 
	C130.761154,218.447159 137.486954,220.173676 144.190216,221.983673 
	C145.496124,222.336273 147.571182,222.204468 147.204712,224.417923 
	C146.879700,226.380936 145.208206,227.202393 143.394867,226.969437 
	C140.780472,226.633545 138.158325,226.126312 135.632431,225.378372 
	C128.950073,223.399597 122.103889,222.210663 115.255531,221.087555 
	C112.511848,220.637589 109.881195,221.114960 112.283432,225.463913 
	C112.452194,230.291092 113.161011,234.627457 113.891823,239.261108 
	C117.827553,244.528946 123.998062,244.864136 129.352966,247.451019 
	C130.268097,247.720444 130.856277,247.935364 131.484756,247.970963 
	C132.150284,248.008667 131.351303,248.274567 131.965485,248.053757 
	C132.207825,247.966629 132.237305,248.106903 131.752563,247.972580 
	C131.308136,247.849396 130.834183,247.820923 130.056885,247.565277 
	C123.755569,245.350815 117.744843,243.314346 113.556473,237.671204 
	C113.465202,234.011429 111.870560,230.608582 114.717758,227.303345 
	C118.956718,226.085175 121.281776,227.085876 121.337929,231.657074 
	C121.437263,239.744812 126.886086,243.331436 133.737427,244.996506 
	C138.089157,246.054092 141.903015,247.252106 143.683823,251.933502 
	C142.516663,251.933502 141.360504,251.985687 140.210297,251.925186 
	C131.694321,251.477158 131.694687,251.470108 129.879700,260.115356 
	C130.023621,260.686401 130.192963,260.834290 130.435425,261.310974 
	C130.484650,261.862030 130.460785,262.084259 130.340302,262.625427 
	C129.797684,264.841003 127.488670,266.815857 130.796432,268.639343 
	C130.857254,269.976593 131.784317,270.749054 132.623230,271.858398 
	C134.311493,274.366974 132.490036,274.176514 130.790543,274.342346 
	C128.901550,274.263794 127.671303,274.987793 126.266670,276.103821 
	C124.759727,276.558105 124.434555,274.568481 122.884995,274.883636 
	C122.407471,274.298157 122.226784,273.904846 122.064072,273.147644 
	C121.650864,270.511871 122.179893,268.244659 122.240723,265.962219 
	C122.268547,264.918060 121.524933,264.153961 120.451698,263.893188 
	C119.808067,263.736816 119.000694,263.646973 118.810768,264.435089 
	C118.596817,265.322876 119.452217,265.865326 120.124115,266.776367 
	C121.475037,268.450897 121.353531,270.223663 121.773849,272.159668 
	C121.969643,273.040558 122.024178,273.643097 122.477921,274.426056 
	C122.800011,274.800262 122.944466,274.936798 123.011597,275.361267 
	C120.713524,275.232422 121.063126,276.728821 121.197197,278.499878 
	C121.338142,279.169556 121.439857,279.375000 121.719177,279.874878 
	C121.996056,287.216888 123.366882,294.247803 122.183022,301.310791 
	C122.046974,302.122406 121.860680,302.948792 120.387352,303.611633 
	C119.905182,297.338593 119.682655,291.226776 118.889801,285.189819 
	C118.300568,280.703217 119.165634,275.815582 115.818771,271.897888 
	C114.966583,270.900330 114.279251,269.864716 113.001114,269.315063 
	C110.175690,268.100006 109.894417,265.371674 111.289177,263.555939 
	C114.482460,259.398926 113.421799,254.454422 114.630241,249.968475 
	C115.355545,247.276031 112.580162,247.459091 111.172653,246.718307 
	C105.304970,243.630264 99.264961,240.856567 93.493149,237.603790 
	C89.265396,235.221207 87.698807,230.177673 89.218857,225.640366 
	C89.423103,225.030716 89.735008,224.234009 90.230675,223.980270 
	C94.353004,221.869904 94.367683,221.902924 92.624405,216.957886 
	C92.352333,216.186127 92.106354,215.405182 91.770638,214.394714 
	C93.177994,214.107483 94.683250,213.988266 96.022614,213.453522 
	C96.776512,213.152542 97.626968,212.247177 96.636909,211.182632 
	C93.167168,207.451904 93.165100,207.456329 97.928055,205.188309 
	C98.059746,205.125610 98.127258,204.928131 98.295578,204.695541 
	C98.488167,203.374130 97.141731,203.597061 96.552681,203.032639 
	C94.798981,201.352249 94.001251,199.623886 97.232574,198.423264 
	C99.682281,197.513062 99.665138,197.320770 97.775940,195.738892 
	C96.828384,194.945496 97.044960,193.966095 97.053864,193.010300 
	C97.067039,191.595810 97.868973,190.831345 99.256340,190.936356 
	C100.484863,191.029343 101.482498,191.260834 101.620605,189.444901 
	C101.764351,187.554794 100.353600,188.232071 99.584305,187.718933 
	C98.617264,187.073883 97.682281,185.617401 97.671715,184.502182 
	C97.659531,183.216248 99.314400,183.159103 100.462082,182.976181 
	C101.640991,182.788300 102.716873,182.409195 103.386063,181.317810 
	C98.273834,178.337860 98.273834,178.337860 104.989555,173.442825 
	C104.110863,172.141571 101.319351,173.650421 101.391068,171.204483 
	C101.481613,168.116257 104.678665,167.958237 106.596107,166.365295 
	C106.116257,165.950546 105.783539,165.414246 105.435860,165.404373 
	C103.684952,165.354599 102.394554,164.251602 102.359749,162.852814 
	C102.323906,161.412277 104.141083,161.307785 105.375450,160.834290 
	C108.332993,159.699814 110.407120,157.635803 108.756279,154.349213 
	C107.496521,151.841217 107.133560,150.357513 108.869308,150.342865 
	C111.150131,150.323608 111.630394,148.443497 112.957489,147.767715 
	C118.308655,145.042816 124.280609,144.665298 130.141418,145.163879 
	C132.108322,145.331207 130.911865,147.480621 130.077515,149.124481 
	C130.314926,150.560638 130.062592,151.540619 129.196777,152.679489 
	C128.089798,157.709030 130.217957,159.523422 134.991302,159.862564 
	C142.725266,160.412033 149.641663,163.865082 156.613647,166.977051 
	C158.376816,167.764053 159.440155,168.808075 158.563080,170.802795 
	C157.603760,172.984558 156.059204,171.633301 154.754837,171.272690 
	C147.414825,169.243439 140.613266,165.459717 132.920685,164.572235 
	C131.930923,164.458038 130.947372,164.240265 129.956024,164.203674 
	C129.010605,164.168777 127.780945,164.020279 127.706223,165.414383 
	C127.633629,166.768768 128.839661,166.898544 129.798279,166.932602 
	C138.471146,167.240646 146.006622,171.410706 154.002533,174.011429 
	C155.970673,174.651596 157.653442,175.286972 156.637009,178.110779 
	C155.562820,181.094986 153.741058,179.377228 152.403763,178.929352 
	C145.020859,176.456711 137.880341,173.175232 130.020081,172.354736 
	C128.661301,172.212906 126.516045,171.319656 126.190002,173.204300 
	C125.813866,175.378418 128.090424,174.790878 129.453781,175.039520 
	C137.777267,176.557556 145.819458,178.996475 153.574814,182.396561 
	C155.444031,183.216049 155.967896,184.306564 155.325363,186.311951 
	C154.496506,188.898941 152.932251,187.409256 151.772888,187.043564 
	C146.092178,185.251709 140.389130,183.492676 134.833862,181.357986 
	C132.251831,180.365768 129.619339,180.654984 127.050316,180.103210 
	C125.925850,179.861679 124.403160,179.784775 124.152382,181.236023 
	C123.806778,183.236008 125.792839,183.161407 126.871506,183.200668 
	C135.290665,183.507187 142.787918,187.169205 150.637451,189.536987 
	C151.270996,189.728119 151.886398,189.986588 152.497101,190.244781 
	C153.986633,190.874481 154.285736,192.108566 154.023224,193.525314 
	C153.659027,195.490891 152.101578,195.169189 150.880325,194.839401 
	C146.719894,193.715912 142.590942,192.471344 138.469620,191.208847 
	C134.174637,189.893143 129.863480,188.629028 125.372910,188.249313 
	C124.253487,188.154663 122.350189,187.486954 122.334579,189.608902 
	C122.323036,191.177368 123.936928,190.949661 125.024551,191.104874 
	C133.080383,192.254349 140.759140,194.844086 148.481934,197.256500 
	C149.415390,197.548080 150.266586,198.122498 151.131683,198.608963 
	C152.580902,199.423904 152.495590,200.632858 152.115234,202.047699 
	C151.636917,203.826904 150.185425,203.333252 149.289001,203.105774 
	C146.091309,202.294388 142.981491,201.144226 139.803421,200.246109 
	C135.971497,199.163223 132.103912,198.206619 127.849884,197.218231 
	C127.184074,197.435074 126.896942,197.544601 126.590279,197.521347 
	C125.962578,197.473740 125.352745,197.569565 124.746506,197.713242 
	C125.317780,197.837601 125.914886,197.439102 126.551598,198.108398 
z"/>
<path fill="#0B0B0B" opacity="1.000000" stroke="none" 
	d="
M168.372757,204.216721 
	C168.138412,206.134628 170.088898,206.236328 170.552734,207.440811 
	C171.250793,209.253479 171.894730,211.162827 168.761337,211.059113 
	C167.771057,211.026321 166.583450,210.590363 166.319382,211.923401 
	C166.062622,213.219498 167.508133,213.272537 168.257080,213.780548 
	C169.480164,214.610153 170.220810,215.839722 169.688721,217.103561 
	C169.172806,218.328918 167.930420,218.994492 166.414215,218.173340 
	C165.545410,217.702820 164.735092,218.009232 164.380630,218.905609 
	C163.901108,220.118164 165.197571,220.066193 165.738541,220.491974 
	C166.999405,221.484344 168.943924,222.117752 167.819489,224.297134 
	C167.047409,225.793594 165.833893,226.469559 164.145309,225.454041 
	C163.336273,224.967514 162.451736,225.017014 162.082504,225.959839 
	C161.679489,226.988968 162.651566,227.390900 163.344147,227.748108 
	C164.828293,228.513611 167.741867,228.492325 166.570023,230.980392 
	C165.814087,232.585373 163.579681,233.989517 161.127090,232.477844 
	C160.556686,232.126251 159.509140,232.328751 158.752274,232.535995 
	C154.432938,233.718781 152.338242,232.534363 153.060181,228.244980 
	C153.784561,223.941162 153.142136,219.642349 153.922440,215.416519 
	C155.020020,209.472412 157.343948,203.919022 157.439514,197.581772 
	C157.548721,190.338058 159.920883,183.154831 160.717957,175.880463 
	C160.986771,173.427094 162.902496,171.732727 162.120316,168.601700 
	C159.871094,159.598206 152.450241,155.543015 146.680847,149.940613 
	C147.703430,149.304031 148.478989,149.191223 149.660309,149.665131 
	C162.629852,153.567886 171.526566,160.953674 174.085922,174.448151 
	C174.328552,175.727478 174.824371,176.503189 175.702118,177.284882 
	C176.277206,177.797043 176.351715,178.491806 176.483719,179.327209 
	C176.955627,182.313766 172.047531,180.644699 173.028885,183.485336 
	C173.606491,185.157318 176.642410,185.558243 175.687759,188.202652 
	C175.475677,188.790131 175.248215,189.372070 174.844284,190.153671 
	C174.172516,190.755646 173.031265,189.938019 172.807220,191.418701 
	C175.137909,195.861816 174.820969,196.681519 170.306992,197.533356 
	C173.761368,202.135345 173.729935,203.048843 169.719696,203.756577 
	C168.972473,203.519440 168.691635,203.642502 168.372757,204.216721 
z"/>
<path fill="#0C0C0C" opacity="1.000000" stroke="none" 
	d="
M298.226654,281.278168 
	C298.937653,286.371674 296.578400,291.373169 300.002899,295.691498 
	C300.958282,296.896240 299.723450,297.557983 298.899078,297.867981 
	C297.231750,298.494965 295.682678,301.148621 293.732483,298.906860 
	C292.143280,297.080048 290.993622,297.452362 289.204407,298.442261 
	C285.298370,300.603302 282.237152,298.948914 281.936676,294.229462 
	C281.588898,288.765930 281.899109,283.263611 281.769470,277.781769 
	C281.706635,275.123230 283.836182,275.066589 285.387878,274.413300 
	C289.974854,272.482178 290.391296,269.675842 286.532898,266.316467 
	C285.667542,265.563049 284.129364,266.007965 283.660583,264.627167 
	C290.255890,260.068176 291.859039,260.486481 295.085144,267.427643 
	C297.063629,271.684418 298.717957,275.990051 298.226654,281.278168 
z"/>
<path fill="#0C0C0C" opacity="1.000000" stroke="none" 
	d="
M276.821198,287.842407 
	C277.172699,290.821991 275.838837,293.670166 278.481720,295.726196 
	C279.430634,296.464386 278.744568,297.274750 277.957520,297.618927 
	C276.354919,298.319733 275.087219,300.219177 273.108887,299.529816 
	C271.645966,299.020050 270.788879,297.712494 270.794281,296.003601 
	C270.807953,291.674225 270.856018,287.343262 270.753601,283.016144 
	C270.714844,281.377258 270.397064,279.724915 270.024261,278.121063 
	C269.775055,277.048767 268.860382,276.555481 267.745728,276.634521 
	C266.456787,276.725952 266.095184,277.627106 266.210846,278.711304 
	C266.818298,284.405487 264.675690,290.336945 267.609070,295.819427 
	C268.725647,297.906311 266.736938,297.913849 265.850952,298.521271 
	C264.522339,299.432251 263.069214,300.574554 261.485504,298.821625 
	C260.549347,297.785461 260.286835,296.577698 260.111084,295.199127 
	C259.270935,288.608398 262.167023,281.681396 258.223022,275.333923 
	C257.555664,274.259888 259.196533,273.762787 259.983643,273.377319 
	C261.634491,272.568939 263.391632,270.439423 265.221222,272.742584 
	C266.545319,274.409424 267.499512,273.779602 268.935364,273.097626 
	C273.504120,270.927551 276.175323,272.331757 276.709259,277.388855 
	C277.057129,280.683807 276.804688,284.042114 276.821198,287.842407 
z"/>
<path fill="#0E0E0E" opacity="1.000000" stroke="none" 
	d="
M246.296478,294.726990 
	C249.391891,295.320557 249.303726,293.384521 249.097260,291.768158 
	C248.400787,286.315674 250.500671,280.737915 247.721497,275.268311 
	C246.777344,273.410095 250.114197,272.469482 251.736359,272.024200 
	C253.937820,271.419922 255.046188,273.283142 255.105942,275.273804 
	C255.245377,279.919189 255.169220,284.571167 255.173370,289.220459 
	C255.175003,291.045013 255.022125,292.899139 256.028656,294.551483 
	C256.641357,295.557281 258.424591,296.625183 256.292419,297.603058 
	C254.557953,298.398529 252.911163,301.223724 250.722931,298.889740 
	C249.155991,297.218475 248.061890,297.194580 246.165237,298.217377 
	C242.181091,300.365814 239.198837,298.755096 238.888229,294.209839 
	C238.605804,290.077148 238.847290,285.910736 238.775558,281.760590 
	C238.750076,280.287354 238.421783,278.821564 238.344040,277.346405 
	C238.279800,276.127136 234.949387,275.697052 237.428726,273.995667 
	C238.869141,273.007202 240.350754,271.377136 242.284363,271.991333 
	C244.208252,272.602478 244.846848,274.380493 244.848694,276.388794 
	C244.853729,281.866821 244.889923,287.345276 244.997650,292.821960 
	C245.008881,293.393219 245.580490,293.953400 246.296478,294.726990 
z"/>
<path fill="#0E0E0E" opacity="1.000000" stroke="none" 
	d="
M338.855286,291.583618 
	C338.962433,293.721924 339.583954,295.029541 341.494293,294.957367 
	C343.546906,294.879822 343.248932,293.145447 343.089935,291.964630 
	C342.355499,286.510406 344.574677,280.931824 341.771698,275.459503 
	C340.637054,273.244263 344.038361,272.553833 345.555420,272.099121 
	C348.032776,271.356476 349.087006,273.346802 349.135590,275.571930 
	C349.233429,280.052795 349.122375,284.538025 349.200714,289.019623 
	C349.229279,290.654419 349.557434,292.283417 349.737366,293.916290 
	C349.880463,295.214966 352.933197,296.367462 350.051819,297.787109 
	C348.202271,298.698364 346.258575,301.375000 344.140198,298.375000 
	C342.781006,296.450134 341.634674,297.585693 340.371765,298.175964 
	C335.717957,300.351379 333.048126,298.745636 332.834412,293.421112 
	C332.674713,289.442596 332.830505,285.452301 332.778564,281.468140 
	C332.761475,280.156891 332.411285,278.846008 332.436432,277.539246 
	C332.462585,276.181122 329.062439,275.820892 331.276093,274.129639 
	C332.739807,273.011322 334.358917,271.183990 336.543457,272.098053 
	C338.410706,272.879395 338.878693,274.696228 338.856140,276.678955 
	C338.801392,281.493317 338.840607,286.308777 338.855286,291.583618 
z"/>
<path fill="#0E0E0E" opacity="1.000000" stroke="none" 
	d="
M199.572174,290.374817 
	C202.421478,289.590424 202.209427,291.936249 203.049622,293.156586 
	C203.750305,294.174286 203.701477,296.262390 205.286850,295.981598 
	C207.332031,295.619415 206.316422,293.544525 206.487350,292.200287 
	C206.633133,291.053894 206.517960,289.874207 206.517624,288.709259 
	C206.515732,282.220184 206.488007,282.114868 200.395828,283.716278 
	C197.779968,284.403931 197.037247,282.867249 196.554688,281.049133 
	C195.384201,276.639038 195.205887,271.869873 196.292877,267.716583 
	C197.360062,263.638947 202.496857,263.306763 206.115570,261.995392 
	C208.845016,261.006287 208.917313,264.130188 210.066315,265.530884 
	C210.687134,266.287689 211.238632,267.101349 211.819931,267.887390 
	C207.095154,271.704987 207.095154,271.704987 202.609787,265.549011 
	C201.441757,270.061707 201.913147,274.306122 202.187256,278.424316 
	C202.360321,281.024628 204.445770,279.274536 205.571350,278.877472 
	C210.731277,277.057404 211.889709,277.717316 212.459137,283.179169 
	C212.613892,284.663452 212.582687,286.170074 212.587860,287.666595 
	C212.616119,295.837189 210.294403,298.622864 202.050537,299.999359 
	C197.280853,300.795807 198.115677,295.876373 196.398193,293.747040 
	C194.552200,291.458374 198.307861,291.731781 199.572174,290.374817 
z"/>
<path fill="#0E0E0E" opacity="1.000000" stroke="none" 
	d="
M327.558838,268.991272 
	C328.179413,270.181763 330.187714,270.659668 329.502594,271.284821 
	C328.092743,272.571350 326.119476,273.283142 324.309113,274.073456 
	C323.068634,274.614990 322.539581,273.579651 322.157867,272.655090 
	C321.381165,270.773804 321.355194,268.535614 319.028900,266.160156 
	C319.028900,275.014008 318.741028,282.880157 319.134674,290.712067 
	C319.378632,295.565674 324.082642,295.265930 328.339050,296.431885 
	C324.523865,298.285553 321.594086,301.008362 317.916840,299.430359 
	C314.042297,297.767670 312.729858,294.127350 312.778290,289.954529 
	C312.853546,283.466156 313.034729,276.964111 312.703583,270.491760 
	C312.518433,266.872925 313.615967,264.822083 317.144165,264.115723 
	C317.306396,264.083252 317.465240,264.026703 317.620575,263.968018 
	C325.129608,261.129700 325.129547,261.129547 327.558838,268.991272 
z"/>
<path fill="#0E0E0E" opacity="1.000000" stroke="none" 
	d="
M220.646149,299.627197 
	C217.947189,297.459076 217.162079,294.828705 217.150955,291.878998 
	C217.142166,289.549561 217.146759,287.220032 217.146667,284.890564 
	C217.146332,275.533844 217.146530,275.533844 225.856522,272.612488 
	C230.288391,271.126038 233.473618,272.899811 233.772324,277.564972 
	C234.111893,282.868073 233.853455,288.208832 233.881119,293.533081 
	C233.887726,294.803772 233.585510,295.743591 232.238144,296.249725 
	C228.545593,297.636902 225.095810,299.766724 220.646149,299.627197 
z"/>
<path fill="#0E0E0E" opacity="1.000000" stroke="none" 
	d="
M361.195190,297.800049 
	C355.834442,300.717407 354.203278,299.743988 354.160187,293.866638 
	C354.105408,286.393494 354.164337,278.919525 354.131470,271.446136 
	C354.124969,269.963837 353.990326,268.473572 353.792145,267.003510 
	C353.652985,265.971466 351.026825,265.303040 353.219788,263.959717 
	C354.695160,263.056000 356.069946,261.310333 358.081024,262.170471 
	C359.521454,262.786560 360.207031,264.146881 360.193420,265.824707 
	C360.157104,270.308472 360.155060,274.793091 360.196381,279.276855 
	C360.252869,285.410675 359.585114,291.601227 361.195190,297.800049 
z"/>
<path fill="#101010" opacity="1.000000" stroke="none" 
	d="
M365.138763,286.003937 
	C364.374176,281.808228 366.793579,277.703491 363.682220,274.254883 
	C363.163940,273.680450 363.826782,272.888763 364.391968,272.643768 
	C367.293396,271.386017 368.729156,268.696899 370.442627,266.247742 
	C372.211304,268.201172 369.606628,271.724243 373.238647,272.649872 
	C373.358795,272.680481 373.448212,273.580048 373.268585,273.928528 
	C369.520935,281.199493 370.685486,288.531830 372.683777,295.986969 
	C373.433289,298.783142 370.347473,298.923492 368.852173,299.491852 
	C366.670288,300.321106 365.465607,298.235291 365.291870,296.464478 
	C364.968414,293.166779 365.160980,289.818481 365.138763,286.003937 
z"/>
<path fill="#171717" opacity="1.000000" stroke="none" 
	d="
M123.831528,315.603210 
	C128.370911,315.908356 132.533264,316.145752 136.751053,315.163239 
	C139.687866,314.479126 143.235458,314.279083 142.986725,319.572937 
	C137.999893,321.130951 132.748291,321.430206 129.350372,326.058136 
	C128.422729,327.321564 126.640511,326.973145 124.914528,327.320190 
	C124.228203,327.201385 123.878998,327.130554 123.279587,326.962982 
	C122.091385,324.335205 121.260330,321.754944 119.798111,319.217377 
	C119.718773,317.658081 119.494720,316.413239 119.543747,314.983582 
	C121.202675,313.988922 122.376137,314.528320 123.831528,315.603210 
z"/>
<path fill="#191919" opacity="1.000000" stroke="none" 
	d="
M122.957047,275.049042 
	C124.482407,273.912415 124.974464,275.017273 125.802750,275.892578 
	C127.099220,275.788483 128.191635,275.738800 129.596375,275.538757 
	C131.309799,275.480133 132.469543,276.057892 133.763443,277.101318 
	C134.096924,277.505463 134.204620,277.684174 134.354385,278.165710 
	C134.640152,278.954620 133.525497,278.530731 134.130112,278.908020 
	C134.476166,278.568970 134.640656,278.458923 135.098770,278.287231 
	C135.800095,278.225037 136.186768,278.317383 136.814178,278.646729 
	C137.072861,278.804443 136.998322,278.926300 136.981995,278.995850 
	C137.317169,279.401550 137.461288,279.815277 137.198593,280.558258 
	C135.016083,281.800873 133.037399,281.462921 130.628006,280.855103 
	C129.874420,280.718231 129.467010,280.449493 129.237198,280.779999 
	C128.859711,281.322876 129.143875,280.507324 129.387115,281.321838 
	C129.270493,288.341492 129.270493,295.107758 129.270493,301.874054 
	C126.326744,297.219238 126.667549,292.095947 126.893707,287.239441 
	C127.094673,282.923645 125.830521,279.518890 123.274597,275.904266 
	C122.934265,275.649231 122.928040,275.641022 122.977921,275.603180 
	C122.893898,275.389832 122.760002,275.214355 122.957047,275.049042 
z"/>
<path fill="#191919" opacity="1.000000" stroke="none" 
	d="
M129.242325,152.592133 
	C128.841904,151.795837 128.641159,150.690521 129.660950,149.628372 
	C131.126846,150.819763 132.640228,150.697830 133.442657,149.237991 
	C136.840942,143.055664 141.447189,144.209305 146.440903,146.771500 
	C147.130722,147.125427 148.020325,147.089905 148.896759,147.613739 
	C148.600555,148.329941 148.160568,148.505753 147.314392,148.384888 
	C145.913116,148.126999 144.853592,148.004486 143.396759,147.938858 
	C142.333847,148.812439 141.350830,149.135483 140.235992,149.810333 
	C136.451752,155.055237 134.146469,155.561050 129.242325,152.592133 
z"/>
<path fill="#3C3C3C" opacity="1.000000" stroke="none" 
	d="
M124.908180,327.563538 
	C128.579712,326.701172 129.928986,322.005219 134.144653,321.380615 
	C136.844467,320.980591 139.104202,317.971008 142.600876,319.970703 
	C142.167175,326.145721 137.417465,327.208282 132.566742,327.858826 
	C130.167480,328.180634 127.684212,327.876068 124.908180,327.563538 
z"/>
<path fill="#1E1E1E" opacity="1.000000" stroke="none" 
	d="
M133.759308,272.314362 
	C134.249710,270.708008 134.399857,269.373291 134.839127,268.141754 
	C135.780426,265.502808 137.097122,264.931030 138.775421,267.660950 
	C139.381531,268.646851 140.047653,269.596283 140.698776,270.553925 
	C144.113037,275.575287 143.728516,276.554840 137.430435,277.844513 
	C134.283569,277.162964 133.556198,275.141327 133.759308,272.314362 
z"/>
<path fill="#171717" opacity="1.000000" stroke="none" 
	d="
M142.379608,330.106689 
	C146.395554,327.711121 150.552841,326.767578 154.803391,325.803558 
	C155.884842,328.179108 155.029388,329.863434 152.853149,331.045135 
	C149.366333,332.938477 145.617111,333.214417 141.773575,332.693573 
	C141.047913,332.595245 139.879578,332.519684 140.430893,331.296539 
	C140.655884,330.797424 141.495865,330.575500 142.379608,330.106689 
z"/>
<path fill="#787878" opacity="1.000000" stroke="none" 
	d="
M298.726624,242.807587 
	C297.822479,244.092117 296.661346,244.906296 297.970154,246.405273 
	C299.117767,247.719666 298.796814,249.119644 297.506104,250.302704 
	C295.147003,247.997025 296.630432,244.147507 293.553528,241.528839 
	C295.734680,241.669373 297.528809,240.212021 298.726624,242.807587 
z"/>
<path fill="#1E1E1E" opacity="1.000000" stroke="none" 
	d="
M132.176651,334.681305 
	C129.125305,337.784637 126.454346,336.343323 123.697418,334.387421 
	C123.574188,333.919342 123.545731,333.706085 123.811668,333.360657 
	C126.384041,333.275391 128.662003,333.322327 131.364349,333.396545 
	C132.234818,333.618561 132.430511,333.965912 132.176651,334.681305 
z"/>
<path fill="#CACACA" opacity="1.000000" stroke="none" 
	d="
M114.784126,226.885345 
	C114.517342,230.185410 113.562775,233.310806 114.114334,236.972809 
	C114.117737,238.036575 114.610512,238.652039 113.983498,239.515259 
	C113.321159,235.344391 109.093918,231.398254 112.457779,226.304596 
	C113.174782,226.174179 113.855560,226.462128 114.784126,226.885345 
z"/>
<path fill="#E3E3E3" opacity="1.000000" stroke="none" 
	d="
M124.049973,216.367737 
	C120.542007,215.520660 116.520454,216.624481 113.016273,214.005585 
	C116.539680,211.761047 119.859673,212.893433 123.597588,214.061188 
	C124.029366,214.750992 124.043045,215.397507 124.049973,216.367737 
z"/>
<path fill="#1E1E1E" opacity="1.000000" stroke="none" 
	d="
M135.772964,260.345856 
	C136.489395,259.968475 136.979645,259.821350 137.451324,259.866852 
	C139.192078,260.034668 141.234421,259.683136 142.063049,261.811920 
	C142.283218,262.377563 142.880585,263.471680 141.772476,263.867371 
	C139.988419,264.504395 138.305359,264.003387 136.371307,262.930420 
	C135.404495,262.214783 135.285080,261.478027 135.772964,260.345856 
z"/>
<path fill="#3C3C3C" opacity="1.000000" stroke="none" 
	d="
M119.617332,319.108673 
	C121.409569,321.157288 124.952057,322.506165 123.077057,326.531830 
	C118.891983,325.780029 119.378563,322.405334 119.617332,319.108673 
z"/>
<path fill="#E9E9E9" opacity="1.000000" stroke="none" 
	d="
M133.700500,272.005096 
	C134.418121,273.984619 134.864838,275.974823 136.875137,277.524475 
	C137.045731,277.810974 137.086823,278.306946 137.079834,278.555695 
	C136.499603,278.693176 135.926331,278.581909 135.057709,278.229004 
	C133.119934,277.980713 131.966675,276.985657 130.468628,275.836884 
	C129.430038,275.135864 129.238068,274.415863 129.435852,273.212463 
	C130.651779,271.993073 131.826645,274.604126 132.900116,272.403992 
	C133.075500,272.034241 133.253998,272.024231 133.700500,272.005096 
z"/>
<path fill="#8E8E8E" opacity="1.000000" stroke="none" 
	d="
M276.182983,316.704987 
	C275.640076,314.404907 272.161835,312.770691 274.158966,309.854431 
	C274.659271,309.123901 274.771027,307.792450 276.119263,308.193726 
	C277.115784,308.490326 276.945618,309.514709 276.921326,310.278778 
	C276.854370,312.384766 276.686432,314.487518 276.182983,316.704987 
z"/>
<path fill="#3C3C3C" opacity="1.000000" stroke="none" 
	d="
M337.214569,314.558472 
	C335.046143,316.641724 335.745361,314.053986 335.717316,313.795532 
	C335.616089,312.863312 335.641357,311.400360 336.632477,311.249725 
	C338.241974,311.005127 339.950714,311.325836 341.599915,311.542206 
	C341.804718,311.569061 342.127502,312.481567 342.012024,312.869476 
	C341.351135,315.089142 339.473969,313.382751 338.268829,313.941864 
	C337.975403,314.078003 337.632965,314.108582 337.214569,314.558472 
z"/>
<path fill="#101010" opacity="1.000000" stroke="none" 
	d="
M135.551315,259.933533 
	C136.005005,260.734314 136.002350,261.441406 135.994690,262.502075 
	C134.259552,261.797394 132.947021,262.474823 131.402405,263.932800 
	C130.667236,263.707428 130.450729,263.343018 130.373840,262.585999 
	C130.483688,261.828735 130.432983,261.414490 130.085251,260.730469 
	C129.948593,260.438019 129.934250,260.521454 129.894257,260.529968 
	C131.877045,262.375305 133.221390,259.122467 135.551315,259.933533 
z"/>
<path fill="#CACACA" opacity="1.000000" stroke="none" 
	d="
M130.505386,261.790314 
	C130.931580,262.417084 130.973740,262.869141 131.007660,263.662170 
	C130.982040,264.554169 130.964645,265.105164 130.708908,265.812317 
	C130.187073,266.271271 129.266144,266.200623 129.967010,267.270935 
	C130.708969,267.339478 130.977570,267.730499 131.148010,268.466248 
	C126.530426,267.973297 128.812851,264.895599 129.173615,262.233673 
	C129.601257,261.829926 129.861313,261.722748 130.505386,261.790314 
z"/>
<path fill="#787878" opacity="1.000000" stroke="none" 
	d="
M124.013870,315.499329 
	C122.907272,315.662323 121.652153,315.496826 120.106934,315.065063 
	C119.895912,313.794922 119.652054,312.110504 120.105438,311.895355 
	C123.566559,310.252869 122.697701,313.927155 124.013870,315.499329 
z"/>
<path fill="#8E8E8E" opacity="1.000000" stroke="none" 
	d="
M285.973633,314.786194 
	C285.929504,316.345886 285.483917,317.110107 284.193481,316.932678 
	C282.841522,316.746796 283.455231,315.916382 283.603058,315.155090 
	C283.908691,313.581512 284.101929,311.986115 284.385071,310.110382 
	C286.766449,311.148346 285.679138,313.005585 285.973633,314.786194 
z"/>
<path fill="#8E8E8E" opacity="1.000000" stroke="none" 
	d="
M250.354370,310.687134 
	C251.426590,310.277039 252.829712,309.548309 252.721466,311.097168 
	C252.586166,313.033081 251.863770,314.927948 251.154358,317.821167 
	C249.521210,315.014130 250.069702,312.985748 250.354370,310.687134 
z"/>
<path fill="#787878" opacity="1.000000" stroke="none" 
	d="
M310.096161,316.136627 
	C307.697266,313.702454 307.949371,311.040375 309.721771,308.235687 
	C309.924561,310.416656 310.127319,312.597626 310.501678,315.156342 
	C310.578613,315.711456 310.484009,315.888824 310.096161,316.136627 
z"/>
<path fill="#8E8E8E" opacity="1.000000" stroke="none" 
	d="
M326.992554,313.131531 
	C327.183441,311.956757 327.146820,310.763977 327.608887,310.521484 
	C328.613770,309.994202 328.992889,311.012787 328.941986,311.810486 
	C328.836639,313.462189 329.644043,315.287476 328.135010,316.871521 
	C326.479828,316.119873 327.201233,314.663208 326.992554,313.131531 
z"/>
<path fill="#CACACA" opacity="1.000000" stroke="none" 
	d="
M242.029144,314.770874 
	C241.255356,314.758698 240.248291,317.357330 240.332397,314.908844 
	C240.396942,313.029877 241.706177,311.184906 243.999283,310.144135 
	C244.475876,312.327972 242.734985,313.215637 242.029144,314.770874 
z"/>
<path fill="#787878" opacity="1.000000" stroke="none" 
	d="
M132.326981,334.960205 
	C131.868256,334.588165 131.794418,334.258118 131.754669,333.675995 
	C133.471100,331.865021 135.333420,334.475891 137.763443,332.673615 
	C136.154160,335.150513 134.506989,335.253296 132.326981,334.960205 
z"/>
<path fill="#1E1E1E" opacity="1.000000" stroke="none" 
	d="
M266.968903,309.622253 
	C268.785156,309.390167 269.239502,309.716492 268.775818,310.343048 
	C267.373047,312.238556 268.604309,314.529205 266.972260,317.809265 
	C266.972260,314.303925 266.972260,312.170929 266.968903,309.622253 
z"/>
<path fill="#3C3C3C" opacity="1.000000" stroke="none" 
	d="
M283.966492,249.302643 
	C284.981293,249.141403 285.833313,248.843582 286.937317,248.845795 
	C287.549469,250.920334 289.640533,249.115921 290.291138,250.900497 
	C288.160828,250.676453 286.093231,252.034851 284.152496,249.850388 
	C284.085724,249.483963 283.803711,249.166061 283.966492,249.302643 
z"/>
<path fill="#343434" opacity="1.000000" stroke="none" 
	d="
M332.187042,311.749908 
	C332.099396,313.235443 332.099396,314.353119 332.099396,316.010315 
	C330.245605,314.290833 331.602539,312.328918 330.552948,310.972961 
	C330.048492,310.321228 330.683350,309.755554 331.171387,309.369843 
	C332.110199,308.627869 332.721375,309.799286 333.072754,310.109924 
	C334.498413,311.370209 332.369293,310.807800 332.187042,311.749908 
z"/>
<path fill="#CACACA" opacity="1.000000" stroke="none" 
	d="
M256.370972,312.672760 
	C255.844696,313.411377 255.353958,314.376862 255.143402,314.319244 
	C253.482147,313.864319 254.733368,312.798676 254.870728,312.054840 
	C255.048447,311.092377 255.702194,310.013550 256.809784,310.531372 
	C257.708771,310.951691 257.322327,311.876465 256.370972,312.672760 
z"/>
<path fill="#FAFAFA" opacity="1.000000" stroke="none" 
	d="
M284.065002,249.441956 
	C281.861511,248.457779 281.436157,246.876740 282.528015,244.706345 
	C284.499847,245.540192 283.830383,247.254990 284.114349,249.024963 
	C284.129242,249.439224 284.044250,249.399963 284.065002,249.441956 
z"/>
<path fill="#FAFAFA" opacity="1.000000" stroke="none" 
	d="
M279.365662,243.001587 
	C279.178497,241.295868 280.178955,240.759125 281.712219,241.222275 
	C282.016693,241.314240 282.448029,242.064697 282.347168,242.242020 
	C281.764008,243.267181 280.675690,242.926788 279.365662,243.001587 
z"/>
<path fill="#3C3C3C" opacity="1.000000" stroke="none" 
	d="
M288.187866,247.909485 
	C288.752533,247.545593 289.285950,246.855865 289.574524,246.482681 
	C289.307404,246.690079 288.731995,247.136856 288.187866,247.909485 
z"/>
<path fill="#3C3C3C" opacity="1.000000" stroke="none" 
	d="
M315.454224,314.851868 
	C314.996216,312.859528 314.996216,310.722198 314.996216,308.584839 
	C315.301544,308.571075 315.606873,308.557281 315.912201,308.543518 
	C315.912201,310.597961 315.912201,312.652405 315.454224,314.851868 
z"/>
<path fill="#E9E9E9" opacity="1.000000" stroke="none" 
	d="
M146.961060,148.503433 
	C147.420639,148.212097 147.868637,148.174667 148.646347,148.065033 
	C149.297974,148.429520 149.619858,148.866226 149.978287,149.585388 
	C149.254761,149.865936 148.494690,149.864029 147.355042,149.817749 
	C146.966782,149.434692 146.958115,149.096024 146.961060,148.503433 
z"/>
<path fill="#E9E9E9" opacity="1.000000" stroke="none" 
	d="
M140.356888,150.019836 
	C140.785461,149.283096 141.570984,148.566193 142.677979,147.922516 
	C142.931458,149.452972 142.136246,150.097000 140.356888,150.019836 
z"/>
<path fill="#CACACA" opacity="1.000000" stroke="none" 
	d="
M247.135345,312.240723 
	C247.878799,311.977478 249.085846,312.132507 248.742691,312.980927 
	C248.234543,314.237335 247.666214,312.918671 247.135345,312.240723 
z"/>
<path fill="#CACACA" opacity="1.000000" stroke="none" 
	d="
M260.135284,312.240662 
	C260.878510,311.977692 262.085449,312.132660 261.742279,312.980957 
	C261.234070,314.237213 260.666107,312.918274 260.135284,312.240662 
z"/>
<path fill="#3C3C3C" opacity="1.000000" stroke="none" 
	d="
M315.144043,315.096802 
	C315.183105,316.180603 314.811646,316.837433 313.604523,316.577026 
	C313.884399,316.096710 314.164246,315.616364 314.720154,315.066467 
	C314.996216,314.996887 315.093658,315.065155 315.144043,315.096802 
z"/>
<path fill="#FAFAFA" opacity="1.000000" stroke="none" 
	d="
M275.233398,244.010468 
	C275.407288,243.895493 275.582794,243.951752 275.758331,244.008026 
	C275.583923,244.065933 275.409485,244.123825 275.233398,244.010468 
z"/>
<path fill="#FAFAFA" opacity="1.000000" stroke="none" 
	d="
M279.010864,243.010986 
	C278.887421,243.449280 278.755066,243.878662 278.622711,244.308029 
	C277.934052,243.983063 278.291107,243.611008 278.778503,243.115051 
	C278.982330,242.987839 279.001984,243.002060 279.010864,243.010986 
z"/>
<path fill="#343434" opacity="1.000000" stroke="none" 
	d="
M137.297485,280.749481 
	C136.985260,280.430023 136.999207,280.039703 136.989410,279.357361 
	C138.554535,279.044525 138.246353,279.797424 137.297485,280.749481 
z"/>
<path fill="#FAFAFA" opacity="1.000000" stroke="none" 
	d="
M281.458069,250.435852 
	C281.524658,250.392944 281.391479,250.478775 281.458069,250.435852 
z"/>
<path fill="#787878" opacity="1.000000" stroke="none" 
	d="
M123.789398,333.168945 
	C124.135262,333.491577 124.081718,333.736633 123.774040,334.048096 
	C123.488655,333.916016 123.340233,333.708893 123.276962,333.478424 
	C123.250137,333.380707 123.402046,333.233887 123.789398,333.168945 
z"/>
<path fill="#3C3C3C" opacity="1.000000" stroke="none" 
	d="
M287.282288,249.213303 
	C286.685516,248.773544 286.701874,248.343582 287.797180,248.089905 
	C288.219147,248.235336 288.163574,248.177368 288.140808,248.151947 
	C288.035400,248.449127 287.855103,248.702057 287.383240,249.015549 
	C287.189270,249.145798 287.249878,249.192795 287.282288,249.213303 
z"/>
<path fill="#CACACA" opacity="1.000000" stroke="none" 
	d="
M121.871384,279.930145 
	C121.568863,279.944641 121.240929,279.719971 121.074722,279.229736 
	C121.519875,279.139099 121.723061,279.381378 121.871384,279.930145 
z"/>
<path fill="#343434" opacity="1.000000" stroke="none" 
	d="
M130.126862,267.124573 
	C128.859833,267.341461 128.912109,266.820312 130.085266,266.036346 
	C130.372681,266.219971 130.274780,266.471436 130.126862,267.124573 
z"/>
<path fill="#CACACA" opacity="1.000000" stroke="none" 
	d="
M246.944336,312.045715 
	C246.683548,311.929169 246.487106,311.751038 246.290649,311.572937 
	C246.507416,311.544159 246.724197,311.515411 247.036041,311.670715 
	C247.131104,311.854797 247.008667,311.984131 246.944336,312.045715 
z"/>
<path fill="#787878" opacity="1.000000" stroke="none" 
	d="
M310.444153,315.687408 
	C310.892731,316.141815 311.466583,316.938416 309.932556,316.443878 
	C309.940277,316.084961 310.077637,315.962830 310.444153,315.687408 
z"/>
<path fill="#CACACA" opacity="1.000000" stroke="none" 
	d="
M259.944336,312.045715 
	C259.683533,311.929138 259.487061,311.751007 259.290619,311.572876 
	C259.507416,311.544128 259.724182,311.515411 260.036011,311.670715 
	C260.131042,311.854797 260.008667,311.984192 259.944336,312.045715 
z"/>
<path fill="#E3E3E3" opacity="1.000000" stroke="none" 
	d="
M113.410004,239.949249 
	C113.829285,239.101593 113.987877,238.538422 114.099815,237.672104 
	C118.261993,241.927368 123.987839,244.045731 129.633850,246.939545 
	C130.109558,247.318130 130.242996,247.600204 130.225891,248.325455 
	C124.411987,245.966034 117.125381,246.382523 113.410004,239.949249 
z"/>
<path fill="#CACACA" opacity="1.000000" stroke="none" 
	d="
M120.205597,267.841614 
	C119.797890,266.411499 118.852791,266.302246 117.819168,266.138641 
	C114.875793,265.672668 116.507263,263.733551 117.199081,262.948578 
	C119.017937,260.884827 121.100784,263.091797 123.042084,263.239838 
	C124.992592,263.388611 123.705688,265.256897 123.393738,266.341370 
	C122.838921,268.270172 122.333008,270.179230 122.684334,272.645966 
	C122.430367,273.128357 122.218452,273.169983 121.802795,272.961090 
	C120.617287,271.272614 122.135895,269.252655 120.205597,267.841614 
z"/>
<path fill="#343434" opacity="1.000000" stroke="none" 
	d="
M129.235901,272.896637 
	C129.725983,273.536163 129.898743,274.234589 130.106140,275.291016 
	C129.259460,277.316345 127.919258,277.126068 126.257164,276.282288 
	C126.021957,274.075928 127.780167,273.808563 129.235901,272.896637 
z"/>
<path fill="#FFFFFF" opacity="1.000000" stroke="none" 
	d="
M126.843384,198.130798 
	C126.107246,198.766052 125.566620,199.432938 125.067970,199.402893 
	C123.476456,199.307007 121.891716,198.991638 120.330940,198.642288 
	C120.157257,198.603394 119.922722,197.608704 120.109222,197.385422 
	C121.425476,195.809631 123.124062,196.820267 124.678795,196.851395 
	C125.330170,196.864441 125.979774,196.965530 127.039108,197.133865 
	C127.318054,197.441879 127.188080,197.642654 126.843384,198.130798 
z"/>
<path fill="#8E8E8E" opacity="1.000000" stroke="none" 
	d="
M130.399292,248.905838 
	C130.089127,248.478149 130.102905,248.187653 130.046402,247.466614 
	C131.749115,247.036072 133.522125,247.036072 135.690689,247.036072 
	C134.535965,249.739105 132.432831,248.899109 130.399292,248.905838 
z"/>
<path fill="#191919" opacity="1.000000" stroke="none" 
	d="
M120.007523,268.029236 
	C123.903229,267.596802 121.865250,270.539825 122.192764,272.670074 
	C122.003700,273.185333 121.848976,273.294067 121.417130,273.342224 
	C119.723778,271.860962 120.709778,269.933838 120.007523,268.029236 
z"/>
<path fill="#FFFFFF" opacity="1.000000" stroke="none" 
	d="
M121.107437,273.709991 
	C121.307610,273.236877 121.475212,273.192139 121.900627,273.112000 
	C122.158432,273.076630 122.396790,273.252258 122.519531,273.169495 
	C122.767479,273.530640 122.892685,273.974579 123.152939,274.738831 
	C123.287987,275.059204 123.132240,275.299316 123.080017,275.432312 
	C121.244072,276.639893 121.035072,275.559357 121.107437,273.709991 
z"/>
<path fill="#343434" opacity="1.000000" stroke="none" 
	d="
M122.833755,248.744370 
	C122.221649,249.092239 121.435379,249.209808 120.644745,249.267380 
	C120.606514,249.270172 120.386154,248.593536 120.494476,248.491074 
	C121.188019,247.835007 121.937225,248.019745 122.833755,248.744370 
z"/>
<path fill="#343434" opacity="1.000000" stroke="none" 
	d="
M122.993011,249.006760 
	C123.674889,249.202682 124.823601,248.642883 124.943626,249.564041 
	C125.003761,250.025589 123.872650,249.849319 123.152504,249.237976 
	C123.008781,248.986557 122.999352,249.000595 122.993011,249.006760 
z"/>
<path fill="#343434" opacity="1.000000" stroke="none" 
	d="
M127.132095,270.979706 
	C127.597511,270.167511 127.853981,270.555359 127.857002,270.973206 
	C127.860138,271.407501 127.600426,271.766907 127.132095,270.979706 
z"/>
<path fill="#FFFFFF" opacity="1.000000" stroke="none" 
	d="
M131.083054,261.555481 
	C130.631714,261.946594 130.374023,261.928162 129.728760,261.923401 
	C129.391739,261.666595 129.442276,261.396088 129.720703,260.781799 
	C130.647507,260.193329 131.091034,260.427734 131.083054,261.555481 
z"/>
<path fill="#FFFFFF" opacity="1.000000" stroke="none" 
	d="
M173.136047,191.330658 
	C171.847672,191.151520 170.541412,190.873077 171.530365,189.628006 
	C172.425903,188.500534 173.511810,189.026520 174.573975,190.023743 
	C174.331863,190.584869 174.003006,190.818954 173.136047,191.330658 
z"/>
<path fill="#FFFFFF" opacity="1.000000" stroke="none" 
	d="
M168.541321,204.272644 
	C168.092484,203.785294 167.838287,203.055161 169.187027,203.445343 
	C169.177567,203.792816 169.004745,203.942078 168.541321,204.272644 
z"/>
<path fill="#FAFAFA" opacity="1.000000" stroke="none" 
	d="
M292.149597,279.343933 
	C292.149872,283.944214 292.170410,288.077087 292.137177,292.209595 
	C292.127106,293.462433 292.492828,295.074890 290.474365,295.154816 
	C288.535767,295.231567 287.911438,293.927063 287.892639,292.261597 
	C287.842285,287.799072 287.883423,283.335266 287.805969,278.873383 
	C287.774872,277.081055 287.936523,275.329956 290.107117,275.243408 
	C292.763306,275.137573 291.874695,277.421143 292.149597,279.343933 
z"/>
<path fill="#E3E3E3" opacity="1.000000" stroke="none" 
	d="
M223.117737,285.045959 
	C223.118195,282.749542 223.145355,280.922089 223.110641,279.095825 
	C223.083115,277.648621 223.323013,276.325745 225.069229,276.250214 
	C226.682678,276.180359 227.586731,277.412354 227.637863,278.773010 
	C227.818527,283.580536 227.795380,288.396088 227.824417,293.208740 
	C227.831253,294.341248 227.279190,295.076996 226.089905,295.212982 
	C224.411133,295.404938 223.497406,294.372589 223.357605,292.971252 
	C223.111343,290.502594 223.180588,288.002411 223.117737,285.045959 
z"/>
<path fill="#FFFFFF" opacity="1.000000" stroke="none" 
	d="
M129.509583,281.385193 
	C129.083054,281.109863 128.083984,280.952484 128.653183,280.261902 
	C128.818542,280.061279 129.494156,280.281219 130.068359,280.546448 
	C130.050125,280.921387 129.899399,281.058258 129.509583,281.385193 
z"/>
<path fill="#FFFFFF" opacity="1.000000" stroke="none" 
	d="
M134.673050,278.206848 
	C134.762329,277.987335 134.644730,278.015594 134.633896,277.989136 
	C134.623062,277.962708 134.318390,278.174805 134.270615,278.354187 
	C134.101105,278.702911 133.979370,278.872284 133.984741,278.755768 
	C134.111847,278.469879 134.583771,278.426331 134.673050,278.206848 
z"/>
<path fill="#343434" opacity="1.000000" stroke="none" 
	d="
M134.172607,278.556824 
	C133.953156,278.675873 134.352844,279.534729 133.577820,279.136108 
	C133.657288,279.022125 133.736786,278.908142 133.964050,278.632019 
	C134.111847,278.469879 134.122391,278.580078 134.172607,278.556824 
z"/>
<path fill="#101010" opacity="1.000000" stroke="none" 
	d="
M131.591492,324.327332 
	C133.758102,321.969910 134.779388,324.451569 136.248199,325.195618 
	C134.553772,326.077881 132.911896,326.646210 131.591492,324.327332 
z"/>
<path fill="#171717" opacity="1.000000" stroke="none" 
	d="
M140.510101,322.565796 
	C140.447708,322.605896 140.572510,322.525696 140.510101,322.565796 
z"/>
</svg>